<svg width="29" height="29" viewBox="0 0 29 29" fill="none" xmlns="http://www.w3.org/2000/svg">
<path fill-rule="evenodd" clip-rule="evenodd" d="M11.8026 6.21693C11.7086 6.31852 11.6555 6.48887 11.5635 7.00915L11.3973 7.95157C11.9702 7.93615 12.543 7.92844 13.1158 7.92844C14.3846 7.92844 15.6547 7.95115 16.9245 7.99607L16.7502 7.01511C16.6648 6.51627 16.6108 6.33721 16.5116 6.22835C16.4567 6.16811 16.2653 6.0032 15.4947 6.0032H12.8197C12.0376 6.0032 11.8521 6.16352 11.8026 6.21693ZM18.4892 8.06264C20.1359 8.14448 21.7811 8.26335 23.4214 8.41817C23.8422 8.45789 24.1495 8.81499 24.1078 9.21579C24.0661 9.61658 23.6912 9.90929 23.2703 9.86958C19.8949 9.551 16.4999 9.38696 13.1158 9.38696C11.1201 9.38696 9.12432 9.48295 7.12825 9.67497L7.12601 9.67518L5.04325 9.86965C4.62237 9.90895 4.24773 9.61586 4.20647 9.21503C4.16521 8.81419 4.47294 8.45739 4.89382 8.41809L6.97434 8.22383C6.97471 8.2238 6.97507 8.22377 6.97543 8.22373C7.92812 8.1321 8.88087 8.06179 9.83366 8.01281L10.0533 6.76725C10.0572 6.74506 10.0613 6.72183 10.0653 6.6983C10.1356 6.29392 10.2388 5.70067 10.654 5.25224C11.138 4.72954 11.8765 4.54468 12.8197 4.54468H15.4947C16.4494 4.54468 17.1871 4.7444 17.6682 5.27243C18.084 5.72876 18.1846 6.32412 18.2517 6.72167C18.255 6.74101 18.2582 6.75989 18.2613 6.77826C18.2615 6.77898 18.2616 6.77969 18.2617 6.7804L18.4856 8.04012C18.4869 8.04763 18.4881 8.05514 18.4892 8.06264ZM7.11428 11.4887C7.5363 11.4628 7.9005 11.7676 7.92774 12.1695L8.59108 21.957C8.59113 21.9577 8.59118 21.9584 8.59123 21.959C8.62004 22.3506 8.64443 22.6612 8.70167 22.9319C8.75742 23.1956 8.83482 23.3687 8.93477 23.4927C9.10714 23.7064 9.53281 23.9916 10.8799 23.9916H17.4345C18.7816 23.9916 19.2073 23.7064 19.3796 23.4927C19.4796 23.3687 19.557 23.1956 19.6127 22.9319C19.67 22.6612 19.6944 22.3506 19.7232 21.959C19.7232 21.9584 19.7233 21.9577 19.7233 21.957L20.3867 12.1695C20.4139 11.7676 20.7781 11.4628 21.2001 11.4887C21.6221 11.5147 21.9422 11.8615 21.9149 12.2635L21.2513 22.055L21.251 22.059L21.2497 22.0774C21.2228 22.4433 21.1932 22.8456 21.114 23.2199C21.0319 23.608 20.8873 24.0176 20.5942 24.3811C19.9804 25.1422 18.9359 25.4501 17.4345 25.4501H10.8799C9.37852 25.4501 8.33401 25.1422 7.72024 24.3811C7.42711 24.0176 7.28245 23.608 7.20037 23.2199C7.12122 22.8456 7.09164 22.4433 7.06474 22.0774L7.06338 22.059L7.0631 22.055L6.39947 12.2635C6.37223 11.8615 6.69226 11.5147 7.11428 11.4887ZM10.8391 15.4836C10.8391 15.0808 11.1819 14.7543 11.6048 14.7543H16.7096C17.1325 14.7543 17.4753 15.0808 17.4753 15.4836C17.4753 15.8863 17.1325 16.2128 16.7096 16.2128H11.6048C11.1819 16.2128 10.8391 15.8863 10.8391 15.4836ZM11.6865 19.3729C11.6865 18.9702 12.0293 18.6437 12.4522 18.6437H15.852C16.2749 18.6437 16.6177 18.9702 16.6177 19.3729C16.6177 19.7757 16.2749 20.1022 15.852 20.1022H12.4522C12.0293 20.1022 11.6865 19.7757 11.6865 19.3729Z" fill="#495057" stroke="#495057" stroke-width="0.5" stroke-linecap="round" stroke-linejoin="round"/>
</svg>
