<svg width="23" height="22" viewBox="0 0 23 22" fill="none" xmlns="http://www.w3.org/2000/svg">
<path d="M22.1122 22C21.9078 22 21.7034 21.8972 21.6012 21.7944L19.5571 19.7383C19.2505 19.4299 19.2505 18.9159 19.5571 18.6075C19.8637 18.2991 20.3747 18.2991 20.6813 18.6075L22.7255 20.6635C23.0321 20.972 23.0321 21.486 22.7255 21.7944C22.5211 21.8972 22.3167 22 22.1122 22ZM11.3805 20.972C8.62095 20.972 5.96357 19.8411 4.02165 17.8878C2.07972 15.9346 0.955444 13.2617 0.955444 10.486C0.955444 7.71028 2.07972 5.03738 4.02165 3.08411C5.96357 1.13084 8.62095 0 11.3805 0C12.8114 0 14.1401 0.30841 15.3666 0.822429C16.5931 1.33645 17.8196 2.15888 18.7394 3.08411C19.7615 4.11215 20.4769 5.24299 20.988 6.47663C21.499 7.81308 21.8056 9.14953 21.8056 10.486C21.8056 11.8224 21.499 13.2617 20.988 14.4953C20.4769 15.729 19.6593 16.9626 18.7394 17.8878C17.7174 18.9159 16.5931 19.6355 15.3666 20.1495C14.1401 20.6635 12.8114 20.972 11.3805 20.972ZM11.3805 1.43925C9.02978 1.43925 6.78123 2.36449 5.04371 4.11215C3.3062 5.85981 2.38634 8.12149 2.38634 10.486C2.38634 12.8505 3.3062 15.1122 5.04371 16.8598C6.78123 18.6075 8.92757 19.5327 11.3805 19.5327C12.607 19.5327 13.7313 19.3271 14.7534 18.8131C15.8776 18.4019 16.7975 17.6822 17.6151 16.8598C18.4328 16.0374 19.1482 15.0093 19.5571 13.9813C19.9659 12.8505 20.2725 11.7196 20.2725 10.5888C20.2725 9.45794 20.0681 8.2243 19.5571 7.19626C19.1482 6.06542 18.4328 5.14018 17.6151 4.31775C16.7975 3.49532 15.7754 2.7757 14.7534 2.36449C13.7313 1.64486 12.607 1.43925 11.3805 1.43925Z" fill="#495057"/>
</svg>
