<svg width="23" height="22" viewBox="0 0 23 22" fill="none" xmlns="http://www.w3.org/2000/svg">
<path d="M14.7385 18.5209C14.3205 18.9302 14.1115 19.4418 14.1115 19.9535C14.1115 20.4651 14.3205 20.9767 14.7385 21.386C15.1565 21.7953 15.679 22 16.2015 22C16.724 22 17.2465 21.7953 17.6646 21.386C18.0826 20.9767 18.2916 20.4651 18.2916 19.9535C18.2916 19.4418 18.0826 18.9302 17.6646 18.5209C16.933 17.8046 15.5745 17.8046 14.7385 18.5209ZM16.6195 20.3628C16.4105 20.5674 16.097 20.5674 15.888 20.3628C15.7835 20.2605 15.7835 20.1581 15.7835 19.9535C15.7835 19.7488 15.888 19.6465 15.888 19.5442C15.9925 19.4418 16.097 19.4418 16.306 19.4418C16.515 19.4418 16.6195 19.5442 16.724 19.5442C16.8285 19.6465 16.8285 19.7488 16.8285 19.9535C16.8285 20.1581 16.724 20.2605 16.6195 20.3628Z" fill="#495057"/>
<path d="M6.37824 18.5209C5.96023 18.9302 5.75122 19.4418 5.75122 19.9535C5.75122 20.4651 5.96023 20.9767 6.37824 21.386C6.79625 21.7953 7.31877 22 7.84128 22C8.3638 22 8.88631 21.7953 9.30432 21.386C9.72234 20.9767 9.93134 20.4651 9.93134 19.9535C9.93134 19.4418 9.72234 18.9302 9.30432 18.5209C8.5728 17.8046 7.21426 17.8046 6.37824 18.5209ZM8.25929 20.3628C8.05029 20.5674 7.73678 20.5674 7.52777 20.3628C7.42327 20.2605 7.42327 20.1581 7.42327 19.9535C7.42327 19.7488 7.52777 19.6465 7.52777 19.5442C7.63227 19.4418 7.73678 19.4418 7.94578 19.4418C8.15479 19.4418 8.25929 19.5442 8.3638 19.5442C8.4683 19.6465 8.4683 19.7488 8.4683 19.9535C8.4683 20.1581 8.3638 20.2605 8.25929 20.3628Z" fill="#495057"/>
<path d="M21.6357 3.06977C20.9041 2.35349 19.9636 1.94419 18.9186 1.94419H5.75121C5.64671 1.53489 5.4377 1.22791 5.12419 0.920932C4.70618 0.409303 3.97466 0 3.13864 0H1.36209C0.944074 0 0.526062 0.409303 0.526062 0.818606C0.526062 1.22791 0.944074 1.63721 1.36209 1.63721H3.13864C3.45215 1.63721 3.76566 1.73954 3.97466 2.04652C4.18367 2.25117 4.28817 2.55815 4.28817 2.86512L3.45215 12.9954C3.45215 13.507 3.45215 14.0186 3.66115 14.4279C3.87016 14.9396 4.07916 15.3489 4.39267 15.7582C4.70618 16.1675 5.12419 16.3721 5.64671 16.5768C6.16922 16.7814 6.58724 16.8838 7.10975 16.8838H18.1871C20.0681 16.8838 21.7402 15.3489 21.9492 13.507L22.4717 5.83257C22.6807 4.80931 22.2627 3.88838 21.6357 3.06977ZM21.0086 6.13955H8.6773C8.25928 6.13955 7.84127 6.54885 7.84127 6.95816C7.84127 7.36746 8.25928 7.77676 8.6773 7.77676H20.9041L20.4861 13.507C20.3816 14.5303 19.4411 15.4512 18.2916 15.4512H7.10975C6.79624 15.4512 6.48273 15.3489 6.27373 15.2465C6.06472 15.1442 5.75121 14.9396 5.54221 14.7349C5.3332 14.5303 5.2287 14.2233 5.12419 14.0186C5.01969 13.7117 5.01969 13.4047 5.01969 13.2L5.85572 3.5814H18.8141C19.4411 3.5814 19.9636 3.78606 20.3816 4.19536C20.7996 4.60466 21.0086 5.21862 20.9041 5.83257L21.0086 6.13955Z" fill="#495057"/>
</svg>
