<svg width="48" height="48" viewBox="0 0 48 48" fill="none" xmlns="http://www.w3.org/2000/svg">
<path d="M13.5783 18.6235C11.9025 18.6235 10.2267 19.0424 8.76039 19.8803C8.76039 19.8803 8.55092 19.8803 8.55092 20.0898C8.55092 20.0898 8.55092 20.0898 8.34144 20.0898C7.9225 20.2993 7.50355 20.5087 7.0846 20.9277C5.40882 22.394 4.36145 24.4887 4.36145 26.7929C4.36145 27.0024 4.36145 27.0024 4.36145 27.2119V32.6582V36.8477C4.36145 41.2466 8.34144 45.0171 13.3688 45.0171C18.3962 45.0171 22.3762 41.4561 22.3762 36.8477V32.6582V26.7929C22.3762 24.4887 21.3288 22.6035 19.653 20.9277C18.1867 19.4614 15.8825 18.6235 13.5783 18.6235ZM9.38881 23.2319C9.80776 22.8129 10.4362 22.394 11.2741 22.1845C11.9025 21.975 12.7404 21.7656 13.5783 21.7656C15.2541 21.7656 16.7204 22.394 17.7677 23.2319C18.8151 24.0698 19.4435 25.3266 19.4435 26.5835C19.4435 27.2119 19.2341 28.0498 18.8151 28.6782C17.7677 30.354 15.8825 31.1919 13.3688 31.1919C11.0646 31.1919 8.96986 30.1445 7.9225 28.6782C7.50355 28.0498 7.50355 27.4214 7.29408 26.7929V26.5835C7.71302 25.5361 8.34144 24.2793 9.38881 23.2319ZM13.5783 34.5435C15.8825 34.5435 17.9772 33.915 19.4435 32.6582C19.4435 35.1719 16.9299 37.0571 13.5783 37.0571C10.2267 37.0571 7.71302 35.1719 7.71302 32.6582C9.17934 33.915 11.2741 34.5435 13.5783 34.5435ZM13.5783 41.6656C11.2741 41.6656 9.17934 40.4087 8.13197 38.7329C8.76039 39.1519 9.38881 39.3613 10.0172 39.5708C10.4362 39.7803 11.0646 39.7803 11.4835 39.9898H11.693C12.3214 39.9898 12.7404 40.1992 13.3688 40.1992C13.9972 40.1992 14.6256 40.1992 15.0446 39.9898C15.2541 39.9898 15.4635 39.9898 15.4635 39.9898C15.8825 39.9898 16.3014 39.7803 16.5109 39.7803C16.7204 39.7803 16.9299 39.5708 16.9299 39.5708C17.3488 39.3613 17.5583 39.3613 17.9772 39.1519C18.1867 39.1519 18.1867 38.9424 18.3962 38.9424C18.3962 38.9424 18.3962 38.9424 18.6056 38.9424C17.9772 40.6182 15.8825 41.6656 13.5783 41.6656Z" fill="#495057"/>
<path d="M44.1614 16.9477V15.0624C44.1614 8.56875 40.1814 3.96033 33.8972 3.12244C33.2688 2.91296 32.6404 2.91296 32.012 2.91296H13.1593C12.5309 2.91296 11.9025 2.91296 11.2741 3.12244C5.19935 3.96033 1.00989 8.56875 1.00989 15.0624V19.2519C1.00989 20.0898 1.63831 20.9277 2.68567 20.9277C3.73304 20.9277 4.36146 20.2993 4.36146 19.2519V15.0624C4.36146 10.2445 7.29409 6.89296 11.9025 6.26454C12.3215 6.26454 12.9499 6.05506 13.3688 6.05506H32.2214C32.6404 6.05506 33.0593 6.05506 33.6877 6.05506C38.2962 6.68348 41.2288 10.0351 41.2288 14.8529V16.3193H38.5056C37.8772 16.3193 37.0393 16.5287 36.4109 16.7382C35.7825 16.9477 35.154 17.3666 34.7351 17.7856C34.3162 17.995 34.1067 18.2045 34.1067 18.2045C33.8972 18.414 33.6877 18.6235 33.6877 18.8329C32.8498 20.0898 32.2214 21.3466 32.4309 23.0224C32.6404 25.955 35.3635 28.4687 38.5056 28.4687H41.0193V29.935C41.0193 35.3813 37.4583 38.7329 32.2214 38.7329H26.9846C26.1467 38.7329 25.3088 39.3613 25.3088 40.4087C25.3088 41.4561 25.9372 42.0845 26.9846 42.0845H32.012C39.134 42.0845 44.1614 37.2666 44.1614 29.935V28.0498C45.4182 27.4214 46.2561 26.1645 46.2561 24.6982V20.2993C46.2561 18.8329 45.2088 17.5761 44.1614 16.9477ZM38.2962 25.1171C36.8298 25.1171 35.3635 24.0698 35.3635 22.6035C35.3635 22.394 35.3635 22.1845 35.3635 21.975C35.3635 21.7656 35.3635 21.5561 35.573 21.3466C35.7825 20.9277 35.9919 20.7182 36.2014 20.5087C36.4109 20.2993 36.6204 20.2993 36.6204 20.0898C37.0393 19.8803 37.4583 19.6708 38.0867 19.6708H42.4856C42.9046 19.6708 43.114 19.8803 43.114 20.2993V24.4887C43.114 24.6982 42.9046 25.1171 42.6951 25.1171H38.2962Z" fill="#495057"/>
</svg>
