<svg width="48" height="48" viewBox="0 0 48 48" fill="none" xmlns="http://www.w3.org/2000/svg">
<path d="M39.0115 9.98603L28.6803 4.13819C25.9514 2.57877 21.8579 2.57877 19.1289 4.13819L8.79772 9.98603C5.8738 11.5455 3.53467 15.2491 3.53467 18.5628V29.4788C3.53467 32.7926 5.67887 36.4962 8.60279 38.0556L18.934 43.9035C20.2985 44.6832 22.0528 45.073 23.6122 45.073C25.1716 45.073 27.1209 44.6832 28.2905 43.9035L38.6217 38.0556C41.5456 36.4962 43.6898 32.7926 43.6898 29.4788V18.5628C44.0796 15.2491 41.7405 11.5455 39.0115 9.98603ZM20.4934 6.67226C21.468 6.08747 22.6376 5.89254 23.8072 5.89254C24.9767 5.89254 26.3412 6.08747 27.1209 6.67226L37.4521 12.5201C38.2318 12.9099 38.8166 13.4947 39.4014 14.2744L33.5535 17.5882L17.5695 8.42661L20.4934 6.67226ZM10.1622 12.5201L14.6456 9.98603L30.8246 19.3426L23.8072 23.436L8.21293 14.2744C8.60279 13.4947 9.3825 12.9099 10.1622 12.5201ZM10.1622 35.5216C8.21293 34.5469 6.65351 31.623 6.65351 29.4788V18.5628C6.65351 17.9781 6.84844 17.5882 6.84844 17.0034L22.4427 25.9701V41.9542C21.6629 41.7593 21.0782 41.5643 20.4934 41.3694L10.1622 35.5216ZM41.1557 29.4788C41.1557 31.623 39.5963 34.352 37.647 35.5216L27.3159 41.3694C26.7311 41.7593 26.1463 41.9542 25.3666 41.9542V25.9701L32.189 22.0715V26.5549C32.189 27.3346 32.7738 28.1143 33.7485 28.1143C34.7231 28.1143 35.3079 27.5295 35.3079 26.5549V20.3172L41.1557 17.0034C41.3507 17.5882 41.3507 18.173 41.3507 18.5628V29.4788H41.1557Z" fill="#495057"/>
</svg>
