<svg width="31" height="31" viewBox="0 0 31 31" fill="none" xmlns="http://www.w3.org/2000/svg">
<path fill-rule="evenodd" clip-rule="evenodd" d="M13.7135 5.56517C15.066 4.21265 16.9004 3.45282 18.8132 3.45282H22.576C23.0955 3.45282 23.5167 3.87398 23.5167 4.39352V9.41057C23.5167 9.9301 23.0955 10.3513 22.576 10.3513H18.8132C18.73 10.3513 18.6503 10.3843 18.5915 10.4431C18.5326 10.5019 18.4996 10.5817 18.4996 10.6648V12.2327H22.576C22.8656 12.2327 23.1392 12.3661 23.3174 12.5944C23.4957 12.8228 23.5588 13.1205 23.4886 13.4015L22.2343 18.4186C22.1296 18.8373 21.7534 19.1311 21.3217 19.1311H18.4996V26.9702C18.4996 27.4898 18.0784 27.9109 17.5589 27.9109H12.5419C12.0223 27.9109 11.6012 27.4898 11.6012 26.9702V19.1311H8.77908C8.25954 19.1311 7.83838 18.7099 7.83838 18.1904V13.1734C7.83838 12.6538 8.25954 12.2327 8.77908 12.2327H11.6012V10.6648C11.6012 8.75209 12.361 6.91768 13.7135 5.56517ZM18.8132 5.33421C17.3994 5.33421 16.0435 5.89583 15.0439 6.89551C14.0442 7.8952 13.4826 9.25106 13.4826 10.6648V13.1734C13.4826 13.6929 13.0614 14.1141 12.5419 14.1141H9.71977V17.2497H12.5419C13.0614 17.2497 13.4826 17.6709 13.4826 18.1904V26.0295H16.6182V18.1904C16.6182 17.6709 17.0394 17.2497 17.5589 17.2497H20.5872L21.3711 14.1141H17.5589C17.0394 14.1141 16.6182 13.6929 16.6182 13.1734V10.6648C16.6182 10.0827 16.8495 9.52439 17.2611 9.11276C17.6727 8.70112 18.231 8.46987 18.8132 8.46987H21.6353V5.33421H18.8132Z" fill="white"/>
</svg>
