<svg width="32" height="31" viewBox="0 0 32 31" fill="none" xmlns="http://www.w3.org/2000/svg">
<path fill-rule="evenodd" clip-rule="evenodd" d="M14.6631 5.63195C16.0156 4.27943 17.85 3.5196 19.7628 3.5196H23.5255C24.0451 3.5196 24.4662 3.94076 24.4662 4.4603V9.47735C24.4662 9.99688 24.0451 10.418 23.5255 10.418H19.7628C19.6796 10.418 19.5998 10.4511 19.541 10.5099C19.4822 10.5687 19.4492 10.6484 19.4492 10.7316V12.2994H23.5255C23.8152 12.2994 24.0887 12.4329 24.267 12.6612C24.4453 12.8895 24.5084 13.1873 24.4382 13.4683L23.1839 18.4853C23.0792 18.9041 22.7029 19.1979 22.2713 19.1979H19.4492V27.037C19.4492 27.5566 19.028 27.9777 18.5085 27.9777H13.4914C12.9719 27.9777 12.5508 27.5566 12.5508 27.037V19.1979H9.72866C9.20913 19.1979 8.78796 18.7767 8.78796 18.2572V13.2401C8.78796 12.7206 9.20913 12.2994 9.72866 12.2994H12.5508V10.7316C12.5508 8.81887 13.3106 6.98446 14.6631 5.63195ZM19.7628 5.40099C18.349 5.40099 16.9931 5.96261 15.9934 6.96229C14.9938 7.96198 14.4321 9.31784 14.4321 10.7316V13.2401C14.4321 13.7597 14.011 14.1808 13.4914 14.1808H10.6694V17.3165H13.4914C14.011 17.3165 14.4321 17.7377 14.4321 18.2572V26.0963H17.5678V18.2572C17.5678 17.7377 17.989 17.3165 18.5085 17.3165H21.5368L22.3207 14.1808H18.5085C17.989 14.1808 17.5678 13.7597 17.5678 13.2401V10.7316C17.5678 10.1495 17.7991 9.59117 18.2107 9.17954C18.6223 8.7679 19.1806 8.53665 19.7628 8.53665H22.5849V5.40099H19.7628Z" fill="#495057"/>
</svg>
