<svg width="35" height="34" viewBox="0 0 35 34" fill="none" xmlns="http://www.w3.org/2000/svg">
<path d="M0.474121 4C0.474121 1.79086 2.26498 0 4.47412 0H30.4741C32.6833 0 34.4741 1.79086 34.4741 4V30C34.4741 32.2091 32.6833 34 30.4741 34H4.47412C2.26498 34 0.474121 32.2091 0.474121 30V4Z" fill="#F0F1F3"/>
<path fill-rule="evenodd" clip-rule="evenodd" d="M14.5829 22.9245C15.0613 23.4029 15.837 23.4029 16.3153 22.9245C16.7937 22.4461 16.7937 21.6705 16.3153 21.1921L13.3482 18.225L24.5575 18.225C25.234 18.225 25.7825 17.6765 25.7825 17C25.7825 16.3234 25.234 15.775 24.5575 15.775L13.3482 15.775L16.3153 12.8079C16.7937 12.3295 16.7937 11.5538 16.3153 11.0755C15.837 10.5971 15.0613 10.5971 14.5829 11.0755L9.5246 16.1338C9.29487 16.3635 9.1658 16.6751 9.1658 17C9.1658 17.3249 9.29487 17.6365 9.5246 17.8662L14.5829 22.9245Z" fill="#495057"/>
</svg>
