<svg width="31" height="31" viewBox="0 0 31 31" fill="none" xmlns="http://www.w3.org/2000/svg">
<path fill-rule="evenodd" clip-rule="evenodd" d="M10.1341 6.58843C7.88283 6.58843 6.05779 8.41347 6.05779 10.6648V20.6989C6.05779 22.9502 7.88283 24.7752 10.1341 24.7752H20.1682C22.4195 24.7752 24.2446 22.9502 24.2446 20.6989V10.6648C24.2446 8.41347 22.4195 6.58843 20.1682 6.58843H10.1341ZM4.17639 10.6648C4.17639 7.37441 6.84377 4.70703 10.1341 4.70703H20.1682C23.4586 4.70703 26.126 7.37441 26.126 10.6648V20.6989C26.126 23.9893 23.4586 26.6566 20.1682 26.6566H10.1341C6.84377 26.6566 4.17639 23.9893 4.17639 20.6989V10.6648Z" fill="white"/>
<path fill-rule="evenodd" clip-rule="evenodd" d="M15.1512 12.8597C13.5926 12.8597 12.3291 14.1232 12.3291 15.6818C12.3291 17.2404 13.5926 18.5039 15.1512 18.5039C16.7098 18.5039 17.9733 17.2404 17.9733 15.6818C17.9733 14.1232 16.7098 12.8597 15.1512 12.8597ZM10.4478 15.6818C10.4478 13.0842 12.5536 10.9783 15.1512 10.9783C17.7489 10.9783 19.8547 13.0842 19.8547 15.6818C19.8547 18.2795 17.7489 20.3853 15.1512 20.3853C12.5536 20.3853 10.4478 18.2795 10.4478 15.6818Z" fill="white"/>
<path fill-rule="evenodd" clip-rule="evenodd" d="M20.7954 9.09692C21.315 9.09692 21.7361 9.51809 21.7361 10.0376V10.0389C21.7361 10.5584 21.315 10.9796 20.7954 10.9796C20.2759 10.9796 19.8547 10.5584 19.8547 10.0389V10.0376C19.8547 9.51809 20.2759 9.09692 20.7954 9.09692Z" fill="white"/>
</svg>
