<svg width="48" height="48" viewBox="0 0 48 48" fill="none" xmlns="http://www.w3.org/2000/svg">
<path fill-rule="evenodd" clip-rule="evenodd" d="M13.0391 2.82465C10.3233 2.82465 8.10278 3.3365 6.48579 4.83011C4.88814 6.30584 4.15753 8.48831 3.79011 11.142C3.78744 11.1612 3.78515 11.1805 3.78325 11.1999L3.25459 16.5844C3.05329 18.6099 3.57407 20.4868 4.60639 21.9795C4.57576 22.0976 4.55946 22.2215 4.55946 22.3492V31.1421C4.55946 35.6842 5.46103 39.2467 7.85126 41.637C10.2415 44.0272 13.804 44.9288 18.3461 44.9288H18.7248C18.7292 44.9288 18.7335 44.9288 18.7379 44.9288H28.5296C28.5339 44.9288 28.5383 44.9288 28.5427 44.9288H28.9015C33.4437 44.9288 37.0062 44.0272 39.3964 41.637C41.7866 39.2467 42.6882 35.6842 42.6882 31.1421V22.3492C42.6882 22.1922 42.6636 22.041 42.618 21.8991C43.614 20.4194 44.1128 18.5731 43.9148 16.5834L43.3662 11.1946C43.3644 11.177 43.3623 11.1595 43.3598 11.142C42.9924 8.48831 42.2618 6.30585 40.6642 4.83011C39.0472 3.3365 36.8267 2.82465 34.1108 2.82465H28.2162H28.1379H19.0708C19.0609 2.82465 19.0511 2.82474 19.0413 2.82494C19.0316 2.82474 19.0218 2.82465 19.0121 2.82465H13.0391ZM17.5029 22.1526C16.018 24.0823 13.6826 25.3455 11.1787 25.3455C9.83406 25.3455 8.58665 25.0379 7.49696 24.4904V31.1421C7.49696 35.3929 8.3579 37.9893 9.92839 39.5598C11.3616 40.9931 13.6493 41.8354 17.2691 41.9716V38.5642C17.2691 36.7049 17.732 35.0402 18.9208 33.8513C20.1097 32.6625 21.7743 32.1996 23.6337 32.1996C25.4931 32.1996 27.1578 32.6625 28.3466 33.8513C29.5355 35.0402 29.9983 36.7049 29.9983 38.5642V41.9709C33.6067 41.8323 35.8887 40.9905 37.3193 39.5598C38.8898 37.9893 39.7507 35.3929 39.7507 31.1421V24.4506C38.6427 25.023 37.3677 25.3455 35.9908 25.3455C33.5149 25.3455 31.207 24.1122 29.7161 22.2231C28.4064 24.1179 26.2101 25.3455 23.6337 25.3455C21.0253 25.3455 18.8065 24.0875 17.5029 22.1526ZM26.8085 5.76215L28.0472 18.1673L28.0477 18.1718C28.0523 18.2161 28.0572 18.2603 28.0626 18.3044C27.9205 20.6471 26.0794 22.408 23.6337 22.408C20.9217 22.408 18.9533 20.2415 19.2204 17.5188L20.3996 5.76215H26.8085ZM31.0078 18.153C31.4003 20.5067 33.6068 22.408 35.9908 22.408C39.0749 22.408 41.2975 19.9493 40.9918 16.8748L40.4465 11.519C40.1083 9.09733 39.5085 7.76154 38.671 6.98793C37.8499 6.22946 36.5258 5.76215 34.1108 5.76215H29.8372L30.9703 17.2306C31.001 17.5422 31.0132 17.85 31.0078 18.153ZM27.0608 41.9913V38.5642C27.0608 37.1532 26.7109 36.3699 26.2695 35.9285C25.828 35.487 25.0448 35.1371 23.6337 35.1371C22.2227 35.1371 21.4394 35.487 20.998 35.9285C20.5565 36.3699 20.2066 37.1532 20.2066 38.5642V41.9913H27.0608ZM6.17795 16.8723L6.7038 11.5164C7.0421 9.09637 7.64175 7.76126 8.47896 6.98793C9.30009 6.22946 10.6242 5.76215 13.0391 5.76215H17.3891L16.1797 17.8758L16.1793 17.8796C15.9395 20.3527 13.6592 22.408 11.1787 22.408C8.09451 22.408 5.872 19.9471 6.17795 16.8723Z" fill="#495057"/>
</svg>
