<svg width="31" height="31" viewBox="0 0 31 31" fill="none" xmlns="http://www.w3.org/2000/svg">
<path fill-rule="evenodd" clip-rule="evenodd" d="M17.2038 4.70709C17.7233 4.70709 18.1445 5.12826 18.1445 5.64779C18.1445 7.06156 18.7061 8.41742 19.7058 9.4171C20.7055 10.4168 22.0613 10.9784 23.4751 10.9784C23.9946 10.9784 24.4158 11.3996 24.4158 11.9191C24.4158 12.4386 23.9946 12.8598 23.4751 12.8598C21.5624 12.8598 19.728 12.1 18.3755 10.7475C18.2964 10.6684 18.2194 10.5878 18.1445 10.5055V20.6989C18.1445 21.8773 17.7951 23.0291 17.1404 24.0089C16.4858 24.9886 15.5553 25.7523 14.4667 26.2032C13.378 26.6541 12.1801 26.7721 11.0245 26.5422C9.86876 26.3123 8.8072 25.7449 7.97399 24.9117C7.14078 24.0785 6.57336 23.0169 6.34348 21.8612C6.1136 20.7055 6.23159 19.5076 6.68251 18.419C7.13344 17.3304 7.89706 16.3999 8.87681 15.7453C9.85655 15.0906 11.0084 14.7412 12.1868 14.7412C12.7063 14.7412 13.1275 15.1624 13.1275 15.6819C13.1275 16.2014 12.7063 16.6226 12.1868 16.6226C11.3805 16.6226 10.5924 16.8617 9.92205 17.3096C9.2517 17.7575 8.72922 18.3941 8.42069 19.139C8.11216 19.8838 8.03144 20.7035 8.18873 21.4942C8.34601 22.2849 8.73425 23.0113 9.30434 23.5814C9.87442 24.1514 10.6008 24.5397 11.3915 24.697C12.1822 24.8543 13.0019 24.7735 13.7467 24.465C14.4916 24.1565 15.1282 23.634 15.5761 22.9636C16.024 22.2933 16.2631 21.5052 16.2631 20.6989V5.64779C16.2631 5.12826 16.6843 4.70709 17.2038 4.70709Z" fill="white"/>
</svg>
