<svg width="48" height="48" viewBox="0 0 48 48" fill="none" xmlns="http://www.w3.org/2000/svg">
<path fill-rule="evenodd" clip-rule="evenodd" d="M23.6332 3.35693C12.0512 3.35693 2.58105 12.827 2.58105 24.4091C2.58105 28.0013 3.52442 31.3833 5.03234 34.3763L3.48997 40.3055C3.33792 40.8904 3.34323 41.5051 3.50539 42.0872C3.66754 42.6694 3.98076 43.1984 4.41327 43.6205C4.84579 44.0425 5.38223 44.3428 5.96821 44.4906C6.55395 44.6385 7.16906 44.6286 7.74985 44.4625L13.4504 42.834C16.5 44.5301 20.0659 45.4612 23.6332 45.4612C35.2152 45.4612 44.6853 35.9911 44.6853 24.4091C44.6853 12.827 35.2152 3.35693 23.6332 3.35693ZM5.51856 24.4091C5.51856 14.4494 13.6735 6.29444 23.6332 6.29444C33.5929 6.29444 41.7478 14.4494 41.7478 24.4091C41.7478 34.3687 33.5929 42.5237 23.6332 42.5237C20.3713 42.5237 17.1079 41.6153 14.4013 39.9913C14.0528 39.7822 13.6331 39.7268 13.2422 39.8385L6.94153 41.6384C6.85852 41.6622 6.77071 41.6636 6.68701 41.6424C6.60331 41.6213 6.52667 41.5784 6.46488 41.5181C6.40309 41.4578 6.35834 41.3823 6.33518 41.2991C6.31204 41.216 6.31132 41.128 6.33298 41.0445L8.01709 34.5705C8.10992 34.2136 8.06513 33.8349 7.8916 33.5096C6.4212 30.7526 5.51856 27.6589 5.51856 24.4091ZM17.1856 17.4707C17.526 17.135 17.7876 17.0653 17.9893 17.0653C18.0298 17.0653 18.0586 17.0747 18.0707 17.0805L18.0886 17.0887C18.0892 17.089 18.0902 17.0898 18.091 17.0904C18.0917 17.091 18.0923 17.0915 18.0927 17.0916L20.1466 19.9821L20.1487 19.985C20.2341 20.1045 20.2843 20.1918 20.3134 20.2512C20.2563 20.3339 20.1912 20.4107 20.1189 20.4807L20.1004 20.4986L19.4207 21.204C19.2378 21.3884 19.0937 21.6079 18.9971 21.8492C18.9004 22.091 18.8534 22.3497 18.8589 22.6098C18.8612 22.8198 18.8935 22.9978 18.93 23.1438L18.9481 23.2162L18.9735 23.2864C19.0008 23.362 19.0283 23.4264 19.0404 23.4545L19.0422 23.4587L19.0718 23.5477L19.1314 23.6586C19.3611 24.0864 19.7134 24.557 20.127 25.0434L20.1365 25.0543C20.5473 25.5278 20.9914 26.02 21.4772 26.5141L21.497 26.5334C21.9869 27.0133 22.4727 27.4708 22.9781 27.9001L22.983 27.9042C23.4842 28.3262 23.9531 28.6617 24.3795 28.8875L24.4204 28.9091L24.6775 29.0251L24.7336 29.0452C24.9635 29.1272 25.206 29.1681 25.4499 29.166C25.7099 29.1669 25.9677 29.1159 26.208 29.0159C26.4498 28.9153 26.6688 28.7672 26.852 28.5804L27.5126 27.9276C27.6429 27.7984 27.7305 27.7334 27.7762 27.7043C27.8436 27.7358 27.9358 27.787 28.0571 27.8699L30.9712 29.9363C30.9747 29.9546 30.9766 29.9732 30.9769 29.9918C30.9761 30.088 30.9547 30.1979 30.8979 30.3174L30.8948 30.3239C30.8031 30.5192 30.6828 30.6998 30.5377 30.8595C30.2353 31.1919 29.9356 31.398 29.6195 31.5274L29.6089 31.5318C29.269 31.6741 28.889 31.7528 28.4566 31.7528C27.789 31.7528 27.0245 31.5965 26.1564 31.2293C25.1857 30.8079 24.2657 30.2782 23.414 29.6502L23.4087 29.6464C22.4443 28.9419 21.534 28.166 20.6856 27.3254C19.8472 26.4823 19.0738 25.577 18.3719 24.6172L18.3702 24.6149C17.7504 23.7708 17.2256 22.861 16.8054 21.902C16.4462 21.0425 16.2894 20.2796 16.2894 19.5974C16.2894 19.1726 16.364 18.7871 16.5016 18.4431L16.505 18.4345C16.6315 18.1124 16.8392 17.7973 17.1611 17.4943L17.1734 17.4827L17.1856 17.4707ZM17.9893 14.1278C16.8885 14.1278 15.9207 14.5976 15.1353 15.367C14.5282 15.9416 14.0671 16.6082 13.7725 17.3564C13.4883 18.0686 13.3519 18.8253 13.3519 19.5974C13.3519 20.7417 13.6168 21.8948 14.1006 23.0482L14.1094 23.0685C14.6171 24.2296 15.2517 25.3309 16.0016 26.3523C16.7918 27.4328 17.6626 28.4519 18.6067 29.4008L18.614 29.408C19.5671 30.3528 20.5898 31.2248 21.6734 32.0165C22.7045 32.7764 23.8183 33.4173 24.9936 33.9268L25.0046 33.9315C26.1671 34.4243 27.3238 34.6903 28.4566 34.6903C29.2559 34.6903 30.0216 34.5426 30.7376 34.2438C31.5 33.9308 32.151 33.4516 32.7126 32.8341C33.0536 32.4585 33.3366 32.0343 33.5525 31.5752C33.7951 31.0635 33.9144 30.5223 33.9145 29.9864L33.9144 29.9768C33.9116 29.5483 33.8247 29.1246 33.6586 28.7296L33.6492 28.7072L33.639 28.6851C33.4223 28.2142 33.0796 27.8128 32.649 27.525L29.7469 25.4668L29.7293 25.4547C29.4512 25.2636 29.1578 25.0944 28.8459 24.9668C28.5033 24.8214 28.1357 24.7435 27.7635 24.738L27.7358 24.7381C27.2568 24.74 26.7877 24.8721 26.3785 25.1195C26.0244 25.3151 25.7134 25.575 25.4447 25.8412L25.2939 25.9902C25.1725 25.9001 25.0337 25.7907 24.8771 25.659C24.4503 25.2963 24.0235 24.896 23.5625 24.4447C23.1372 24.0116 22.7402 23.5727 22.3602 23.1349C22.2295 22.981 22.1207 22.8458 22.031 22.7285L22.1818 22.5719C22.454 22.3053 22.6908 22.0048 22.8867 21.678C23.1438 21.2647 23.2829 20.7887 23.2885 20.3016V20.2848C23.2885 19.8745 23.1832 19.4947 23.0531 19.1856C22.9198 18.8593 22.739 18.5577 22.5402 18.2793L22.5391 18.2776L20.495 15.4012C20.1791 14.9521 19.7736 14.6329 19.3284 14.4257C18.9005 14.2229 18.439 14.1278 17.9893 14.1278Z" fill="#495057"/>
</svg>
