<svg width="31" height="31" viewBox="0 0 31 31" fill="none" xmlns="http://www.w3.org/2000/svg">
<path fill-rule="evenodd" clip-rule="evenodd" d="M9.5775 7.84276C7.32619 7.84276 5.50114 9.6678 5.50114 11.9191V19.4447C5.50114 21.696 7.32619 23.521 9.5775 23.521H22.1201C24.3714 23.521 26.1965 21.696 26.1965 19.4447V11.9191C26.1965 9.6678 24.3714 7.84276 22.1201 7.84276H9.5775ZM3.61975 11.9191C3.61975 8.62874 6.28713 5.96136 9.5775 5.96136H22.1201C25.4105 5.96136 28.0779 8.62874 28.0779 11.9191V19.4447C28.0779 22.7351 25.4105 25.4024 22.1201 25.4024H9.5775C6.28713 25.4024 3.61975 22.7351 3.61975 19.4447V11.9191Z" fill="white"/>
<path fill-rule="evenodd" clip-rule="evenodd" d="M12.8768 11.1005C13.1717 10.9335 13.5336 10.9381 13.8242 11.1124L20.0955 14.8752C20.3789 15.0452 20.5522 15.3514 20.5522 15.6819C20.5522 16.0123 20.3789 16.3185 20.0955 16.4885L13.8242 20.2513C13.5336 20.4257 13.1717 20.4302 12.8768 20.2633C12.5818 20.0963 12.3995 19.7836 12.3995 19.4447V11.9191C12.3995 11.5802 12.5818 11.2675 12.8768 11.1005ZM14.2809 13.5805V17.7832L17.7832 15.6819L14.2809 13.5805Z" fill="white"/>
</svg>
